Coordinates
version=1
nRows=29
nColumns=24
inDegrees=yes

Units are S.I. units (second, meters, Newtons, ...)
Angles are in degrees.

endheader
time	pelvis_tilt	pelvis_list	pelvis_rotation	pelvis_tx	pelvis_ty	pelvis_tz	hip_flexion_r	hip_adduction_r	hip_rotation_r	knee_angle_r	ankle_angle_r	subtalar_angle_r	mtp_angle_r	hip_flexion_l	hip_adduction_l	hip_rotation_l	knee_angle_l	ankle_angle_l	subtalar_angle_l	mtp_angle_l	lumbar_extension	lumbar_bending	lumbar_rotation
      1.83400000	      5.67087164	      3.07758123	     -4.98541097	      1.44417616	      1.03406478	      0.25958036	     10.60609420	     -6.35676624	     -4.80654746	    -63.91482684	      4.86897725	     -2.60785203	      1.22592736	      4.23921612	      9.16873251	      2.19241361	    -17.21839118	      7.97061264	    -12.97383848	     -1.46409255	     -3.52446593	     -6.88272734	      3.98998892
      1.83816667	      5.75166776	      2.95186150	     -4.76245405	      1.44849477	      1.03480133	      0.25896861	     11.04575769	     -6.17035741	     -4.86507680	    -63.43292686	      5.19564159	     -2.67033907	      1.39300677	      3.74210382	      9.10951617	      2.53040757	    -16.97663688	      7.98899947	    -13.08238706	     -1.53865425	     -3.73616192	     -6.73203829	      3.71838441
      1.84233333	      5.84638053	      2.81189287	     -4.53617512	      1.45289552	      1.03556184	      0.25836211	     11.43938564	     -5.97002885	     -4.93762388	    -62.88345231	      5.49386126	     -2.80898555	      1.56017635	      3.22586885	      9.02974960	      2.84259365	    -16.74182531	      8.00034737	    -13.19887158	     -1.62200125	     -3.94878390	     -6.57836827	      3.45955080
      1.84650000	      5.92238529	      2.68304308	     -4.30818849	      1.45720963	      1.03624958	      0.25774211	     11.85448579	     -5.78447390	     -5.01121352	    -62.30408564	      5.73192595	     -2.98383227	      1.68855329	      2.73491377	      8.95971691	      3.17506040	    -16.50371807	      8.04292529	    -13.29343912	     -1.69248092	     -4.14824795	     -6.40195049	      3.23437402
      1.85066667	      5.97563342	      2.54429385	     -4.07601475	      1.46157582	      1.03688279	      0.25712496	     12.26871553	     -5.58759384	     -5.09637493	    -61.66938856	      5.92845983	     -3.23952158	      1.81204474	      2.26889337	      8.87306576	      3.50161837	    -16.26895085	      8.05740819	    -13.42870664	     -1.77043823	     -4.31729059	     -6.23070706	      2.97618056
      1.85483333	      6.05940469	      2.41895892	     -3.84756117	      1.46588233	      1.03751224	      0.25650682	     12.64428128	     -5.41148609	     -5.17979521	    -61.00256240	      6.13927196	     -3.48824896	      1.90518016	      1.77472092	      8.79895791	      3.81908817	    -16.02958336	      8.08656038	    -13.54248123	     -1.83475299	     -4.52025699	     -6.06201107	      2.75380615
      1.85900000	      6.11741689	      2.27481890	     -3.60555683	      1.47023611	      1.03811251	      0.25588122	     13.01663757	     -5.21432590	     -5.28307279	    -60.26707509	      6.30525057	     -3.80844335	      1.98823891	      1.31161962	      8.69872879	      4.14448468	    -15.80855567	      8.10968856	    -13.65928308	     -1.90235091	     -4.69273551	     -5.87877597	      2.49362855
      1.86316667	      6.16307214	      2.15078831	     -3.37503137	      1.47453739	      1.03862510	      0.25527645	     13.40295098	     -5.03832006	     -5.37112378	    -59.51144125	      6.46782769	     -4.13083563	      2.05793675	      0.86769177	      8.61674752	      4.46684460	    -15.58147213	      8.11846728	    -13.80539915	     -1.97044786	     -4.84789192	     -5.71359900	      2.26666128
      1.86733333	      6.22631489	      2.01853952	     -3.12070154	      1.47882950	      1.03914921	      0.25463946	     13.74473750	     -4.86095435	     -5.48718987	    -58.70508099	      6.62159108	     -4.47834363	      2.11801216	      0.41273963	      8.52158440	      4.78905860	    -15.37340027	      8.12238361	    -13.94124677	     -2.04632114	     -5.03895624	     -5.54152385	      2.01016743
      1.87150000	      6.26289380	      1.88693701	     -2.89821475	      1.48315805	      1.03961821	      0.25405713	     14.10235345	     -4.67599080	     -5.57058339	    -57.85141204	      6.69792459	     -4.83392727	      2.14561115	     -0.01982326	      8.42262374	      5.10020191	    -15.15328267	      8.16912936	    -14.05544202	     -2.10344442	     -5.16573667	     -5.36037016	      1.81613844
      1.87566667	      6.29420051	      1.77476927	     -2.67026526	      1.48744604	      1.04002427	      0.25347467	     14.45659510	     -4.51652179	     -5.65994723	    -56.97539126	      6.82666427	     -5.18601978	      2.17023245	     -0.44215389	      8.34161823	      5.41702262	    -14.92577956	      8.14027709	    -14.23931335	     -2.19502957	     -5.30345220	     -5.20791382	      1.56641889
      1.87983333	      6.30082166	      1.65518730	     -2.45021695	      1.49175713	      1.04037904	      0.25291348	     14.82455078	     -4.34206832	     -5.73124362	    -56.05463507	      6.85217106	     -5.55205564	      2.16601747	     -0.82586038	      8.24532384	      5.70251948	    -14.73158898	      8.18798330	    -14.34683027	     -2.24771028	     -5.40719618	     -5.04079964	      1.38870551
      1.88400000	      6.32287556	      1.53564246	     -2.22898833	      1.49606388	      1.04072953	      0.25236062	     15.15444463	     -4.17186070	     -5.81216028	    -55.08909807	      6.90878002	     -5.91129746	      2.14436447	     -1.23239595	      8.14772867	      6.00679256	    -14.51846943	      8.18453054	    -14.50317955	     -2.32010244	     -5.52742379	     -4.87425200	      1.16878242
      1.88816667	      6.31838223	      1.42783040	     -2.01035933	      1.50037978	      1.04100004	      0.25182456	     15.50064583	     -4.00987564	     -5.87300951	    -54.10233511	      6.92003212	     -6.24937155	      2.10836394	     -1.60036770	      8.05624954	      6.28823328	    -14.32569919	      8.21563489	    -14.61459704	     -2.37448674	     -5.61899288	     -4.72066952	      0.98526803
      1.89233333	      6.32930242	      1.31816524	     -1.80523638	      1.50469475	      1.04127383	      0.25131902	     15.81679495	     -3.84526070	     -5.92754134	    -53.06803286	      6.90852059	     -6.56817645	      2.05935957	     -1.98415385	      7.95995679	      6.55948007	    -14.13001830	      8.25079022	    -14.73237845	     -2.42608989	     -5.71623082	     -4.56514553	      0.80775289
      1.89650000	      6.30235419	      1.21842618	     -1.59165357	      1.50900583	      1.04144853	      0.25081216	     16.15973605	     -3.69367484	     -5.98328633	    -52.01356627	      6.87933149	     -6.85798872	      2.00464219	     -2.31795923	      7.86892905	      6.81995519	    -13.95759987	      8.30630963	    -14.84208429	     -2.46808678	     -5.75995277	     -4.42463370	      0.63672617
      1.90066667	      6.27306280	      1.12747285	     -1.38753052	      1.51333052	      1.04159835	      0.25034474	     16.49478230	     -3.54395989	     -6.01430288	    -50.92788522	      6.82921776	     -7.15133988	      1.93419600	     -2.65033371	      7.78359269	      7.08301438	    -13.77409806	      8.33289499	    -14.96154907	     -2.51291845	     -5.80886922	     -4.29292459	      0.45993559
      1.90483333	      6.25012678	      1.04598771	     -1.19913947	      1.51768366	      1.04171634	      0.24990525	     16.80661373	     -3.40484303	     -6.03289039	    -49.81884951	      6.77069652	     -7.40641443	      1.85235242	     -2.99637922	      7.70657990	      7.33386887	    -13.58265573	      8.36571183	    -15.07933911	     -2.55936708	     -5.86637032	     -4.17335176	      0.29494758
      1.90900000	      6.21645212	      0.96738144	     -1.00116480	      1.52199316	      1.04179921	      0.24947626	     17.11838000	     -3.26604423	     -6.04467048	    -48.67881607	      6.69782478	     -7.64275483	      1.75506434	     -3.31627289	      7.62763184	      7.59345141	    -13.40911467	      8.39868156	    -15.17938322	     -2.60820238	     -5.92240668	     -4.05315601	      0.12422180
      1.91316667	      6.19208640	      0.89449403	     -0.80573090	      1.52631422	      1.04186286	      0.24906062	     17.40540278	     -3.13833793	     -6.06149120	    -47.51106540	      6.59313285	     -7.84585970	      1.66580236	     -3.64245237	      7.55062610	      7.81962203	    -13.24745952	      8.46643555	    -15.27480739	     -2.64741039	     -5.96384946	     -3.94893664	     -0.01640360
      1.91733333	      6.13474025	      0.83158796	     -0.62688328	      1.53068359	      1.04183918	      0.24869533	     17.71717960	     -3.00957153	     -6.03763851	    -46.32982911	      6.48465262	     -8.03741589	      1.55887919	     -3.93858981	      7.48195058	      8.05251637	    -13.08019595	      8.51853462	    -15.36294045	     -2.69390155	     -5.97726922	     -3.85186044	     -0.17452865
      1.92150000	      6.07131087	      0.77992416	     -0.44737903	      1.53502558	      1.04176978	      0.24833380	     18.02575451	     -2.89832208	     -6.01983054	    -45.12594982	      6.39288230	     -8.18980525	      1.38612599	     -4.22107976	      7.42295131	      8.27757465	    -12.91816922	      8.54585357	    -15.46824896	     -2.77379511	     -5.97583549	     -3.76421383	     -0.33385688
      1.92566667	      6.00608957	      0.73819743	     -0.26186893	      1.53936327	      1.04165840	      0.24797789	     18.32690702	     -2.80182419	     -6.00197697	    -43.91131586	      6.25309016	     -8.31062520	      1.29802720	     -4.48931051	      7.37021335	      8.48413425	    -12.78670777	      8.66725366	    -15.51556560	     -2.80854311	     -5.97837996	     -3.70417415	     -0.43582273
      1.92983333	      5.92805137	      0.69540001	     -0.07458056	      1.54372770	      1.04151396	      0.24762962	     18.62413681	     -2.70511451	     -5.98017871	    -42.67012126	      6.15159163	     -8.36308894	      1.24168517	     -4.74471652	      7.31206880	      8.68906846	    -12.65061520	      8.76521378	    -15.53078217	     -2.82909517	     -5.95741852	     -3.61343467	     -0.51972450
      1.93400000	      5.86526353	      0.67355669	      0.08307792	      1.54808589	      1.04135456	      0.24736589	     18.89912831	     -2.61663255	     -5.91694299	    -41.40791443	      5.96757807	     -8.54178346	      1.13915113	     -5.02927348	      7.27502469	      8.88742107	    -12.48432291	      8.83728195	    -15.60118653	     -2.87465656	     -5.96977218	     -3.58543374	     -0.68925363
      1.93816667	      5.81158644	      0.65152355	      0.26122937	      1.55247733	      1.04117644	      0.24707063	     19.14499754	     -2.53904345	     -5.87138656	    -40.13227428	      5.83698985	     -8.61027470	      1.04063914	     -5.31562216	      7.23404566	      9.09125578	    -12.34169761	      8.93221188	    -15.64537536	     -2.92255522	     -5.97881717	     -3.53937522	     -0.83347618
      1.94233333	      5.72221107	      0.62494868	      0.43503007	      1.55683111	      1.04090797	      0.24677862	     19.42401722	     -2.46593617	     -5.84493555	    -38.84790060	      5.73912787	     -8.59909503	      0.99120973	     -5.54479690	      7.18668247	      9.25796088	    -12.23207577	      9.05941552	    -15.66203449	     -2.94501492	     -5.95742987	     -3.49010478	     -0.89546899
      1.94650000	      5.65443338	      0.62605543	      0.60012256	      1.56119927	      1.04065645	      0.24653740	     19.66360111	     -2.40755610	     -5.76637658	    -37.53565874	      5.57715529	     -8.70465716	      0.89968251	     -5.81183400	      7.16608241	      9.44798050	    -12.09180273	      9.15406234	    -15.68870556	     -2.99725836	     -5.94800534	     -3.48240068	     -1.05582632
      1.95066667	      5.55459414	      0.63813741	      0.77677421	      1.56556393	      1.04030399	      0.24626280	     19.93665000	     -2.38191143	     -5.72567162	    -36.23704674	      5.50499487	     -8.63962511	      0.86423373	     -6.02476047	      7.15702809	      9.62335808	    -11.99472634	      9.28685629	    -15.67947886	     -3.01763266	     -5.89165982	     -3.46622449	     -1.11677196
